G04*
G04 #@! TF.GenerationSoftware,Altium Limited,Altium Designer,24.2.2 (26)*
G04*
G04 Layer_Color=16711935*
%FSLAX25Y25*%
%MOIN*%
G70*
G04*
G04 #@! TF.SameCoordinates,D69A43C9-FDAF-4BAE-836A-D486D32142D5*
G04*
G04*
G04 #@! TF.FilePolarity,Positive*
G04*
G01*
G75*
%ADD12C,0.00394*%
D12*
X3937Y192913D02*
X3968Y191925D01*
X4061Y190940D01*
X4216Y189962D01*
X4432Y188997D01*
X4708Y188047D01*
X5043Y187116D01*
X5436Y186208D01*
X5885Y185327D01*
X6389Y184475D01*
X6945Y183657D01*
X7551Y182875D01*
X8205Y182133D01*
X8905Y181433D01*
X9647Y180779D01*
X10429Y180173D01*
X11247Y179617D01*
X12098Y179113D01*
X12980Y178664D01*
X13888Y178271D01*
X14819Y177936D01*
X15769Y177660D01*
X16734Y177444D01*
X17711Y177289D01*
X18696Y177196D01*
X19685Y177165D01*
X192913D02*
X193902Y177196D01*
X194887Y177289D01*
X195864Y177444D01*
X196830Y177660D01*
X197780Y177936D01*
X198711Y178271D01*
X199619Y178664D01*
X200500Y179113D01*
X201352Y179617D01*
X202170Y180173D01*
X202952Y180779D01*
X203694Y181434D01*
X204393Y182133D01*
X205047Y182875D01*
X205654Y183657D01*
X206210Y184475D01*
X206714Y185327D01*
X207163Y186208D01*
X207556Y187116D01*
X207891Y188047D01*
X208167Y188997D01*
X208383Y189962D01*
X208537Y190940D01*
X208630Y191925D01*
X208661Y192913D01*
X185039Y405512D02*
X185071Y404523D01*
X185164Y403538D01*
X185318Y402561D01*
X185534Y401595D01*
X185810Y400645D01*
X186145Y399715D01*
X186538Y398807D01*
X186987Y397925D01*
X187491Y397074D01*
X188047Y396255D01*
X188653Y395474D01*
X189308Y394731D01*
X190007Y394032D01*
X190749Y393378D01*
X191531Y392771D01*
X192349Y392215D01*
X193201Y391712D01*
X194082Y391263D01*
X194990Y390870D01*
X195921Y390534D01*
X196871Y390259D01*
X197837Y390043D01*
X198814Y389888D01*
X199799Y389795D01*
X200787Y389764D01*
X11811D02*
X12800Y389795D01*
X13785Y389888D01*
X14762Y390043D01*
X15727Y390259D01*
X16677Y390534D01*
X17608Y390870D01*
X18516Y391263D01*
X19398Y391712D01*
X20249Y392215D01*
X21068Y392771D01*
X21849Y393378D01*
X22591Y394032D01*
X23291Y394732D01*
X23945Y395474D01*
X24552Y396255D01*
X25107Y397074D01*
X25611Y397925D01*
X26060Y398807D01*
X26453Y399715D01*
X26788Y400645D01*
X27064Y401595D01*
X27280Y402561D01*
X27435Y403538D01*
X27528Y404523D01*
X27559Y405512D01*
X19685Y177165D02*
X192913D01*
X208661Y192896D02*
X208661Y389764D01*
X3937Y192913D02*
X3937Y389764D01*
X27559Y405512D02*
Y413386D01*
X200787Y389764D02*
X208661D01*
X185039Y405512D02*
Y413386D01*
X27559D02*
X185039D01*
X3937Y389764D02*
X11811D01*
M02*
