M48
;Layer_Color=9474304
;FILE_FORMAT=2:4
INCH,TZ
;TYPE=PLATED
T01F00S00C0.0197
T02F00S00C0.0315
T03F00S00C0.0354
T04F00S00C0.0394
T05F00S00C0.0433
T07F00S00C0.0630
%
T01
X7283Y27067
X7402Y37717
X6693Y40650
X3386Y37795
X9843Y36319
X10827Y35433
X13976Y34843
X13583Y38110
X13661Y40748
X17323Y40039
X18799Y38484
T02
X14461Y25984
X15461Y26484
Y25484
X4445
Y26484
X3445Y25984
T03
X5709Y21350
Y22350
X8030Y32669
Y33669
X13230Y33869
Y32469
T04
X14370Y23524
X17028Y25394
X7087Y24016
X3362Y20472
X2362
Y27740
Y28740
X6791Y28445
X18898Y28740
Y27740
X12303Y39764
X10335Y38583
T05
X9646Y25787
X10630
X11614
X4921Y32480
X3937
X2953
X16339
X17323
X18307
T07
X10630Y21850
X12480
X8780
M30
