G04*
G04 #@! TF.GenerationSoftware,Altium Limited,Altium Designer,24.2.2 (26)*
G04*
G04 Layer_Color=8388736*
%FSLAX25Y25*%
%MOIN*%
G70*
G04*
G04 #@! TF.SameCoordinates,D69A43C9-FDAF-4BAE-836A-D486D32142D5*
G04*
G04*
G04 #@! TF.FilePolarity,Negative*
G04*
G01*
G75*
%ADD19R,0.05315X0.04331*%
%ADD20R,0.04331X0.05315*%
%ADD21R,0.06693X0.12205*%
%ADD22O,0.06496X0.02756*%
%ADD23R,0.06496X0.02756*%
%ADD24C,0.09055*%
%ADD25R,0.12205X0.10236*%
%ADD26C,0.08268*%
%ADD27C,0.07480*%
%ADD28R,0.07480X0.07480*%
%ADD29C,0.05512*%
%ADD30C,0.12205*%
%ADD31R,0.12205X0.12205*%
%ADD32R,0.07480X0.07480*%
%ADD33R,0.08268X0.08268*%
%ADD34R,0.08268X0.08268*%
%ADD35C,0.04331*%
D19*
X163386Y333661D02*
D03*
Y341535D02*
D03*
X157480Y232283D02*
D03*
Y224410D02*
D03*
X169291D02*
D03*
Y232283D02*
D03*
X82677Y385827D02*
D03*
Y377953D02*
D03*
X91535Y385827D02*
D03*
Y377953D02*
D03*
X81693Y396654D02*
D03*
Y404528D02*
D03*
X35433Y394685D02*
D03*
Y386811D02*
D03*
X90551Y396654D02*
D03*
Y404528D02*
D03*
X26575Y387795D02*
D03*
Y379921D02*
D03*
X123031Y385827D02*
D03*
Y377953D02*
D03*
X114173Y377953D02*
D03*
Y385827D02*
D03*
X38386Y287402D02*
D03*
Y279528D02*
D03*
X165354Y287402D02*
D03*
Y279528D02*
D03*
X147638D02*
D03*
Y287402D02*
D03*
X47244Y279528D02*
D03*
Y287402D02*
D03*
X132874Y241142D02*
D03*
Y249016D02*
D03*
X174213Y279528D02*
D03*
Y287402D02*
D03*
X39370Y232283D02*
D03*
Y224409D02*
D03*
D20*
X72835Y252868D02*
D03*
X64961D02*
D03*
X131890Y354331D02*
D03*
X139764D02*
D03*
X98425Y318898D02*
D03*
X106299D02*
D03*
X65945Y376969D02*
D03*
X58071D02*
D03*
X41339D02*
D03*
X49213D02*
D03*
X188583Y378740D02*
D03*
X180709D02*
D03*
X142717Y405512D02*
D03*
X150591D02*
D03*
X167323D02*
D03*
X159449D02*
D03*
X180709Y386417D02*
D03*
X172835D02*
D03*
X124016Y354331D02*
D03*
X116142D02*
D03*
Y363189D02*
D03*
X124016D02*
D03*
X173228Y269685D02*
D03*
X165354D02*
D03*
X64961Y264764D02*
D03*
X72835D02*
D03*
X44291Y305118D02*
D03*
X36417D02*
D03*
D21*
X188976Y237008D02*
D03*
X188976Y219685D02*
D03*
D22*
X45374Y401201D02*
D03*
Y396201D02*
D03*
Y391201D02*
D03*
Y386201D02*
D03*
X66831Y401201D02*
D03*
Y396201D02*
D03*
Y391201D02*
D03*
X163287Y381279D02*
D03*
Y386280D02*
D03*
Y391280D02*
D03*
Y396280D02*
D03*
X141831Y381279D02*
D03*
Y386280D02*
D03*
Y391280D02*
D03*
D23*
X66831Y386201D02*
D03*
X141831Y396280D02*
D03*
D24*
X67913Y284449D02*
D03*
X70866Y240158D02*
D03*
X103347Y385827D02*
D03*
X170276Y253937D02*
D03*
X143701Y235236D02*
D03*
X123031Y397638D02*
D03*
D25*
X58071Y354331D02*
D03*
X20669D02*
D03*
X87598Y287402D02*
D03*
X125000D02*
D03*
X191929Y354331D02*
D03*
X154527D02*
D03*
D26*
X49213Y324803D02*
D03*
X39370D02*
D03*
X29528D02*
D03*
X96457Y257874D02*
D03*
X106299D02*
D03*
X116142D02*
D03*
X183071Y324803D02*
D03*
X173228D02*
D03*
X163386D02*
D03*
X23622Y277402D02*
D03*
X188976D02*
D03*
X33622Y204724D02*
D03*
D27*
X57087Y223504D02*
D03*
X44449Y264843D02*
D03*
X34449Y259842D02*
D03*
X144606D02*
D03*
X154606Y264843D02*
D03*
D28*
X57087Y213504D02*
D03*
D29*
X132299Y324693D02*
D03*
Y338693D02*
D03*
X80299Y326693D02*
D03*
Y336693D02*
D03*
D30*
X124803Y218504D02*
D03*
X106299D02*
D03*
D31*
X87795D02*
D03*
D32*
X44449Y254842D02*
D03*
X154606D02*
D03*
D33*
X23622Y287402D02*
D03*
X188976D02*
D03*
D34*
X23622Y204724D02*
D03*
D35*
X187992Y384842D02*
D03*
X139764Y348425D02*
D03*
X66929Y406496D02*
D03*
X98425Y363189D02*
D03*
X108268Y354331D02*
D03*
X72835Y270669D02*
D03*
X135827Y381102D02*
D03*
X136614Y407480D02*
D03*
X173228Y400394D02*
D03*
X74016Y377165D02*
D03*
X33858Y377953D02*
D03*
M02*
